<svg width="124" height="32" viewBox="0 0 124 32" fill="none" xmlns="http://www.w3.org/2000/svg">
<mask id="mask0_5105_11820" style="mask-type:luminance" maskUnits="userSpaceOnUse" x="0" y="0" width="124" height="32">
<path fill-rule="evenodd" clip-rule="evenodd" d="M0 32H124V0H0V32Z" fill="white"/>
</mask>
<g mask="url(#mask0_5105_11820)">
<path d="M112.306 10.326C113.372 9.5948 114.63 9.19358 115.925 9.17158C120.226 9.17158 123.217 12.1095 123.217 16.4631V24.7577H119.287V16.8326C119.287 14.4183 117.819 13.0017 115.826 13.0017C113.674 13.0017 112.362 14.53 112.362 16.8326V24.7533H108.416V4.92355L112.306 2.66667V10.326Z" fill="#000000"/>
<path d="M37.0553 9.73034C38.5845 10.2855 39.8903 11.2842 40.8282 12.6172C41.7661 13.9502 42.2641 15.5164 42.2738 17.1486H42.2712C42.2861 18.7772 41.8066 20.3495 40.8854 21.6931C39.9633 23.0376 38.6699 24.0512 37.1442 24.6249C34.5205 25.649 31.4339 25.2874 28.4582 23.606L26.6184 22.5457C26.1776 23.0147 25.6796 23.4273 25.1367 23.7731L25.1244 23.7802L17.8972 28.0001V23.803L28.7415 17.4539L28.6562 18.1675C28.6069 18.5828 28.5233 18.9963 28.4063 19.3993L30.2443 20.4507C32.8012 21.9043 34.6876 21.6834 35.82 21.2417C36.4245 21.0112 36.9788 20.6443 37.4249 20.1806C37.8719 19.7169 38.2168 19.1494 38.4226 18.5388C38.5634 18.0979 38.6347 17.6334 38.6329 17.1644C38.6312 16.274 38.3593 15.4205 37.8455 14.6937C37.3307 13.9678 36.6163 13.4276 35.7778 13.1302C34.6331 12.699 32.7431 12.4993 30.2047 13.9845L13.9211 23.5188L13.893 23.5364C12.0549 24.6125 10.1166 25.1871 8.28911 25.1985C7.24031 25.2091 6.20648 25.0278 5.22191 24.66C3.28357 23.9473 1.71566 22.5316 0.8094 20.6742C-0.0968587 18.8168 -0.247317 16.7104 0.384425 14.7421C0.757487 13.6194 1.38571 12.5767 2.19958 11.7233C3.01346 10.8698 4.0253 10.194 5.12601 9.76905C7.76559 8.73784 10.8522 9.09947 13.8155 10.7871L15.6536 11.8464C16.0953 11.3775 16.5941 10.9648 17.1388 10.619L17.1467 10.6137L17.5312 10.3867L14.7306 8.80031C14.3496 8.54427 14.0812 8.15624 13.9757 7.71015C13.8692 7.26317 13.9361 6.79684 14.1622 6.39737C14.3883 5.99791 14.7535 5.70051 15.1908 5.56061C15.628 5.42071 16.0979 5.45063 16.5141 5.64508L16.5405 5.65828L21.1307 8.28383L25.6374 5.66708L25.6506 5.66092C26.0623 5.46383 26.5295 5.42951 26.966 5.56325C27.4032 5.69787 27.771 5.98823 28.0016 6.38154C28.233 6.77484 28.3069 7.23765 28.211 7.68375C28.1142 8.12985 27.8564 8.52051 27.4842 8.78447L27.456 8.80207L13.534 16.8397L13.629 16.1209C13.6792 15.7408 13.7583 15.3615 13.8657 14.992L12.0268 13.9405C9.47077 12.4861 7.5861 12.7087 6.45372 13.1513C5.61345 13.4628 4.90516 14.0127 4.39924 14.7447C3.89244 15.4768 3.62848 16.3338 3.63376 17.2233C3.63816 18.1129 3.91355 18.9664 4.42827 19.6923C4.94211 20.4182 5.65656 20.9602 6.49507 21.2593C7.63801 21.6914 9.52708 21.8911 12.0664 20.405L28.3861 10.8513C30.2223 9.77697 32.1607 9.20329 33.9899 9.19185C35.0396 9.1813 36.0717 9.36255 37.0553 9.73034Z" fill="#000000"/>
<path d="M59.8531 15.324C60.1173 15.387 60.3941 15.4529 60.6805 15.5248C63.5665 16.2586 65.7705 17.2555 65.7714 20.1415C65.7714 23.1322 62.8336 25.177 59.1601 25.177C56.1176 25.1726 53.8088 24.335 52.3394 21.9206L55.8035 19.9277C56.4845 21.2923 57.638 21.9743 59.2648 21.9725C60.7923 21.9725 61.7311 21.2915 61.7311 20.2937C61.7311 19.2959 60.421 18.9836 58.1624 18.5102C55.067 17.8274 53.0741 16.5701 53.0741 13.9463C53.0741 11.1087 55.9592 9.17032 59.1593 9.17032C61.8877 9.17032 63.775 9.90589 65.4538 12.0079L62.149 13.8979C61.5208 12.8068 60.575 12.2719 59.2112 12.2719C57.7946 12.2719 57.0089 12.901 57.0089 13.7413C57.0089 14.6461 58.1823 14.9258 59.8531 15.324Z" fill="#000000"/>
<path d="M67.8681 24.7577L71.751 24.7533V9.17164L67.8681 11.4435V24.7577Z" fill="#000000"/>
<path d="M81.8764 9.17164C77.5739 9.17164 74.4794 12.3735 74.4794 16.5714V24.7586L78.4195 24.7542V16.8336C78.4195 14.531 79.7313 13.0026 81.8835 13.0026C83.8764 13.0026 85.3449 14.4192 85.3449 16.8336V24.7542H89.2743V16.5714C89.2743 12.5829 86.2423 9.17164 81.8764 9.17164Z" fill="#000000"/>
<path d="M95.3481 17.1468C95.3481 19.5612 96.9741 21.3966 99.3884 21.3966C100.962 21.3966 102.327 20.6091 102.955 19.2981L106.312 21.2409C105.62 22.449 104.619 23.4503 103.411 24.141C102.203 24.8317 100.833 25.1871 99.4412 25.1695C94.7832 25.1739 91.3658 21.8163 91.3658 17.1477C91.3658 12.4791 94.7225 9.17253 99.4412 9.17253C102.378 9.17253 105 10.7 106.259 13.0554L102.903 15.0501C102.573 14.4051 102.068 13.8667 101.447 13.4954C100.825 13.124 100.112 12.9349 99.3884 12.9498C97.0796 12.9498 95.3481 14.6805 95.3481 17.1468Z" fill="#000000"/>
</g>
</svg>
